<mxfile host="Electron" agent="Mozilla/5.0 (Windows NT 10.0; Win64; x64) AppleWebKit/537.36 (KHTML, like Gecko) draw.io/28.1.2 Chrome/138.0.7204.243 Electron/37.4.0 Safari/537.36" version="28.1.2">
  <diagram id="eOD8AuVFpSJ3tEu4LUBw" name="Seite-1">
    <mxGraphModel dx="1426" dy="841" grid="1" gridSize="10" guides="1" tooltips="1" connect="1" arrows="1" fold="1" page="1" pageScale="1" pageWidth="827" pageHeight="1169" math="0" shadow="0">
      <root>
        <mxCell id="0" />
        <mxCell id="1" parent="0" />
        <mxCell id="rkJU3tHB8VokYEY1LB7e-1" value="Hello Meister!" style="text;html=1;align=center;verticalAlign=middle;whiteSpace=wrap;rounded=0;fontSize=31;fontStyle=1" vertex="1" parent="1">
          <mxGeometry x="30" y="20" width="220" height="60" as="geometry" />
        </mxCell>
        <mxCell id="rkJU3tHB8VokYEY1LB7e-4" value="" style="edgeStyle=orthogonalEdgeStyle;rounded=0;orthogonalLoop=1;jettySize=auto;html=1;" edge="1" parent="1" source="rkJU3tHB8VokYEY1LB7e-2" target="rkJU3tHB8VokYEY1LB7e-3">
          <mxGeometry relative="1" as="geometry" />
        </mxCell>
        <mxCell id="rkJU3tHB8VokYEY1LB7e-2" value="Start" style="ellipse;whiteSpace=wrap;html=1;" vertex="1" parent="1">
          <mxGeometry x="80" y="90" width="120" height="80" as="geometry" />
        </mxCell>
        <mxCell id="rkJU3tHB8VokYEY1LB7e-6" value="" style="edgeStyle=orthogonalEdgeStyle;rounded=0;orthogonalLoop=1;jettySize=auto;html=1;" edge="1" parent="1" source="rkJU3tHB8VokYEY1LB7e-3" target="rkJU3tHB8VokYEY1LB7e-5">
          <mxGeometry relative="1" as="geometry" />
        </mxCell>
        <mxCell id="rkJU3tHB8VokYEY1LB7e-3" value="Print: What is your name?" style="rounded=1;whiteSpace=wrap;html=1;" vertex="1" parent="1">
          <mxGeometry x="80" y="190" width="120" height="60" as="geometry" />
        </mxCell>
        <mxCell id="rkJU3tHB8VokYEY1LB7e-8" value="" style="edgeStyle=orthogonalEdgeStyle;rounded=0;orthogonalLoop=1;jettySize=auto;html=1;" edge="1" parent="1" source="rkJU3tHB8VokYEY1LB7e-5" target="rkJU3tHB8VokYEY1LB7e-7">
          <mxGeometry relative="1" as="geometry" />
        </mxCell>
        <mxCell id="rkJU3tHB8VokYEY1LB7e-5" value="input: name" style="shape=parallelogram;perimeter=parallelogramPerimeter;whiteSpace=wrap;html=1;fixedSize=1;rounded=1;" vertex="1" parent="1">
          <mxGeometry x="80" y="280" width="120" height="60" as="geometry" />
        </mxCell>
        <mxCell id="rkJU3tHB8VokYEY1LB7e-10" value="" style="edgeStyle=orthogonalEdgeStyle;rounded=0;orthogonalLoop=1;jettySize=auto;html=1;" edge="1" parent="1" source="rkJU3tHB8VokYEY1LB7e-7" target="rkJU3tHB8VokYEY1LB7e-9">
          <mxGeometry relative="1" as="geometry" />
        </mxCell>
        <mxCell id="rkJU3tHB8VokYEY1LB7e-7" value="Print: Hello Meister name" style="whiteSpace=wrap;html=1;rounded=1;" vertex="1" parent="1">
          <mxGeometry x="80" y="370" width="120" height="60" as="geometry" />
        </mxCell>
        <mxCell id="rkJU3tHB8VokYEY1LB7e-9" value="End" style="ellipse;whiteSpace=wrap;html=1;rounded=1;" vertex="1" parent="1">
          <mxGeometry x="80" y="450" width="120" height="80" as="geometry" />
        </mxCell>
        <mxCell id="rkJU3tHB8VokYEY1LB7e-11" value="&lt;h1 style=&quot;margin-top: 0px;&quot;&gt;PS Code&lt;/h1&gt;&lt;div&gt;START&lt;/div&gt;&lt;div&gt;&lt;span style=&quot;white-space: pre;&quot;&gt;&#x9;&lt;/span&gt;SET name: null&lt;br&gt;&lt;/div&gt;&lt;div&gt;&lt;span style=&quot;white-space: pre;&quot;&gt;&#x9;&lt;/span&gt;PRINT: What is your name?&lt;br&gt;&lt;/div&gt;&lt;div&gt;&lt;span style=&quot;white-space: pre;&quot;&gt;&#x9;&lt;/span&gt;GET name&lt;br&gt;&lt;/div&gt;&lt;div&gt;&lt;span style=&quot;white-space: pre;&quot;&gt;&#x9;&lt;/span&gt;PRINT: Hello Meister + name&lt;br&gt;&lt;/div&gt;&lt;div&gt;END&lt;/div&gt;" style="text;html=1;whiteSpace=wrap;overflow=hidden;rounded=0;" vertex="1" parent="1">
          <mxGeometry x="320" y="90" width="220" height="150" as="geometry" />
        </mxCell>
      </root>
    </mxGraphModel>
  </diagram>
</mxfile>
